<?xml version="1.0" encoding="UTF-8" standalone="no"?>
<!-- Created with Inkscape (http://www.inkscape.org/) -->

<svg
   version="1.1"
   id="svg1"
   width="24"
   height="24"
   viewBox="0 0 1024 1024"
   sodipodi:docname="pp5_transparent_adjusted.svg"
   inkscape:version="1.4.2 (ebf0e940, 2025-05-08)"
   inkscape:export-filename="pp5_transparent_adjusted.svg"
   inkscape:export-xdpi="96"
   inkscape:export-ydpi="96"
   xmlns:inkscape="http://www.inkscape.org/namespaces/inkscape"
   xmlns:sodipodi="http://sodipodi.sourceforge.net/DTD/sodipodi-0.dtd"
   xmlns="http://www.w3.org/2000/svg"
   xmlns:svg="http://www.w3.org/2000/svg">
  <defs
     id="defs1" />
  <sodipodi:namedview
     id="namedview1"
     pagecolor="#ffffff"
     bordercolor="#000000"
     borderopacity="0.25"
     inkscape:showpageshadow="2"
     inkscape:pageopacity="0.0"
     inkscape:pagecheckerboard="0"
     inkscape:deskcolor="#d1d1d1"
     inkscape:zoom="0.025390625"
     inkscape:cx="1378.4615"
     inkscape:cy="-137.84615"
     inkscape:window-width="968"
     inkscape:window-height="656"
     inkscape:window-x="581"
     inkscape:window-y="248"
     inkscape:window-maximized="0"
     inkscape:current-layer="g1" />
  <g
     inkscape:groupmode="layer"
     inkscape:label="Image"
     id="g1">
    <path
       style="fill:currentColor"
       d="m 488,834.32149 c -31.83611,-3.26032 -48.77563,-6.0215 -73,-11.89916 -45.81159,-11.11545 -90.05619,-29.94576 -120.5,-51.28426 -21.47109,-15.0494 -45.50357,-38.68332 -56.78667,-55.84491 -2.25581,-3.43109 -4.27232,-6.0675 -4.48114,-5.85868 -0.62549,0.62549 2.69893,6.52488 9.05323,16.06552 13.13938,19.72807 24.27808,32.99096 37.50936,44.66254 11.06224,9.75823 12.99737,12.84827 3.51638,5.61501 -3.19614,-2.4384 -8.73616,-6.38361 -12.31116,-8.76713 -36.63831,-24.42748 -59.52132,-55.90469 -73.67238,-101.34165 -0.75068,-2.41032 -2.16248,-3.31298 -9.49643,-6.07171 -32.357,-12.1714 -49.05371,-35.22829 -53.01245,-73.20618 -1.48778,-14.27299 -0.0365,-31.92371 3.69436,-44.93072 5.52726,-19.26995 18.17906,-39.49724 31.35022,-50.12173 3.299,-2.66114 6.02935,-5.11473 6.06743,-5.45243 0.0381,-0.3377 -1.76206,-1.8831 -4.00034,-3.43422 -9.37407,-6.49624 -9.36285,-17.0303 0.0238,-22.30587 2.28264,-1.28292 3.99268,-2.62808 3.80008,-2.98924 -3.6492,-6.84323 -6.21787,-13.68549 -7.54237,-20.09092 -1.40806,-6.80953 -1.45889,-8.82404 -0.35957,-14.24829 1.51987,-7.4993 5.28202,-13.81746 8.2276,-13.81746 3.62273,0 5.65318,1.81658 12.01326,10.74793 3.42783,4.81364 6.66661,9.20207 7.1973,9.75207 0.62075,0.64333 0.7442,-2.57989 0.34614,-9.03707 -1.73558,-28.15338 4.99527,-72.02915 12.00624,-78.26407 5.52615,-4.91445 8.65514,-0.35509 11.14191,16.23522 0.96413,6.43216 2.08198,11.36583 2.4841,10.96371 0.40211,-0.40212 0.73112,-1.36921 0.73112,-2.14909 0,-3.04253 11.61104,-31.48713 18.47044,-45.2487 8.58313,-17.21976 17.58504,-32.58561 29.87777,-51 9.26288,-13.87569 12.33911,-18.20514 33.88349,-47.6872 6.90787,-9.45295 12.7585,-17.77795 13.00141,-18.5 0.35413,-1.05264 0.79514,-1.0209 2.22543,0.1602 1.55703,1.28575 1.72656,2.75974 1.33361,11.59507 l -0.45018,10.12207 -16.58552,33.40493 C 284.30813,299.26596 279.79163,309 281.06507,309 281.57928,309 282,308.56613 282,308.03585 c 0,-0.98207 20.29566,-26.8438 29.26103,-37.28585 4.84283,-5.64049 5.03667,-5.75 10.1774,-5.75 4.64531,0 5.37235,0.2893 6.40105,2.54705 0.63829,1.40088 1.16343,3.98838 1.16698,5.75 l 0.006,3.20295 4.16264,-5 c 11.97639,-14.38559 32.59299,-32.41285 46.58313,-40.73252 C 391.00415,224.08002 408.83912,217 414.43976,217 c 5.87836,0 8.56024,2.46697 8.56024,7.87427 0,5.78977 -2.17588,10.96683 -11.36569,27.04226 C 401.82634,269.07332 400.78895,271 401.35914,271 c 0.23623,0 6.11646,-6.21149 13.06719,-13.8033 6.95073,-7.59182 14.04307,-14.63348 15.76077,-15.64815 3.03173,-1.79089 3.16241,-1.79105 4.46799,-0.006 2.6874,3.67524 2.06274,4.93627 -14.22452,28.71566 -4.98818,7.28275 -10.35014,15.49136 -11.91545,18.24136 -1.56531,2.75 -3.52644,6.125 -4.35806,7.5 -1.36689,2.26001 -1.36276,2.356 0.043,1 0.85529,-0.825 6.0576,-6.91303 11.56069,-13.52896 26.59513,-31.97322 56.54986,-58.47736 92.73922,-82.05626 21.30751,-13.88275 45.3554,-24.61353 67.00557,-29.89959 l 10.99443,-2.68438 4.73671,2.12551 c 5.22316,2.3438 5.85044,3.1762 8.08295,10.72619 1.53141,5.17897 1.53022,5.18717 -1.74993,12.03168 -6.07156,12.66922 -25.61181,41.65658 -46.2927,68.67378 -4.58393,5.98838 -8.11726,11.10513 -7.85184,11.37055 1.45754,1.45754 27.36483,-24.29352 43.6155,-43.35251 5.20262,-6.10169 11.67688,-13.7019 14.38725,-16.88936 l 4.92795,-5.79537 1.82205,2.25014 c 4.93655,6.09638 -1.59301,20.51259 -16.66328,36.78988 -3.58306,3.87004 -6.51466,7.2002 -6.51466,7.40035 0,0.20016 7.84418,-3.53211 17.43152,-8.29394 20.08541,-9.97598 32.46281,-14.52981 35.32658,-12.99717 1.02643,0.54933 2.38858,2.70075 3.02701,4.78094 1.42864,4.65493 0.87537,5.62175 -8.50155,14.85622 -3.73096,3.67428 -6.33356,6.50314 -5.78356,6.28636 0.55,-0.21678 8.875,-4.27436 18.5,-9.01685 38.68898,-19.06305 79.34591,-33.74562 108.88765,-39.32295 C 765.82148,208.20122 773,209.62029 773,214.23247 c 0,6.331 -16.47762,28.91642 -34.93912,47.8901 -7.15897,7.35759 -13.02634,13.45852 -13.0386,13.55762 -0.0122,0.0991 1.44022,-0.24589 3.22772,-0.76666 1.7875,-0.52077 12.025,-2.72489 22.75,-4.89804 22.40596,-4.54001 46.53735,-7.38451 58.16646,-6.8564 7.09654,0.32227 8.26137,0.65104 10.02552,2.82967 7.06452,8.72431 -13.0356,32.87592 -47.44749,57.01124 -5.88138,4.125 -10.70491,7.72744 -10.71896,8.00541 -0.014,0.27798 8.18697,-0.0282 18.22447,-0.68041 25.28069,-1.64265 84.87448,-3.35491 92.75,-2.6649 7.23795,0.63414 9.00215,1.96392 8.99626,6.78103 -0.005,4.43286 -2.88481,8.50865 -10.86063,15.37322 -10.44577,8.9904 -20.00807,15.11682 -41.92242,26.85907 -10.84226,5.80955 -20.16321,10.99469 -20.71321,11.52252 -0.6427,0.61679 0.25055,0.761 2.5,0.40361 12.19473,-1.93752 56.69626,-6.23558 74.5,-7.1954 18.80444,-1.01376 23.5,1.15583 23.5,10.85819 0,11.86862 -11.33844,23.54872 -33.55064,34.56163 -5.47215,2.71311 -19.73232,8.90717 -31.68927,13.76457 -11.95695,4.85741 -21.40695,9.13657 -21,9.50926 0.40695,0.37268 7.07749,1.89753 14.82343,3.38855 20.15024,3.87871 27.94939,8.69692 27.71065,17.11926 -0.1604,5.6587 -5.70584,12.56875 -25.74533,32.08066 C 816.25768,524.39058 810.38893,532 815.94067,532 c 2.53575,0 14.12394,-9.37985 29.21782,-23.64984 7.2396,-6.84443 12.75683,-11.31273 13.72405,-11.11486 2.98479,0.61062 1.84947,9.90045 -2.21315,18.10924 -2.83579,5.72991 -5.80604,9.38832 -14.90893,18.36316 l -11.36761,11.2077 6.7523,4.61364 c 10.68989,7.30408 20.81871,22.03461 25.21791,36.67487 0.77741,2.58715 1.06826,4.83715 0.64635,5 -0.42191,0.16285 -1.20187,8.14784 -1.73324,17.74442 -0.63844,11.53032 -1.35788,17.57891 -2.12115,17.83333 -0.63526,0.21175 -1.15502,0.98177 -1.15502,1.71115 0,0.72937 -2.23249,5.75437 -4.96109,11.16666 -12.18514,24.16974 -35.05615,42.6814 -62.73462,50.77702 l -7.19571,2.10466 -6.03567,11.7353 c -19.55769,38.02648 -43.85402,67.4306 -70.57291,85.40936 -7.16966,4.82437 -16.49201,9.65551 -17.22235,8.92517 -0.28792,-0.28791 4.36942,-5.60567 10.34962,-11.81723 5.98021,-6.21156 12.94876,-13.76875 15.48567,-16.79375 5.33963,-6.36695 17.06284,-23.15756 16.53627,-23.68412 -0.19634,-0.19634 -4.36023,3.75158 -9.25309,8.77316 -51.80134,53.16404 -125.56609,80.60941 -214.34601,79.75092 -9.10256,-0.088 -18.12511,-0.32133 -20.05011,-0.51847 z m 58,-25.93621 c 40.45136,-4.89001 85.1991,-20.91885 116.10496,-41.58932 16.80204,-11.23755 25.05716,-18.13293 39.41006,-32.91863 C 723.65996,711.0646 739.56124,686.06329 752.31839,654 771.93988,604.68419 774.16293,556.24553 758.95129,509.47389 755.50959,498.8916 744.95777,475.475 746.57121,482 c 3.47183,14.04069 4.5317,21.03307 5.53246,36.5 1.16601,18.02108 0.6541,55.05675 -0.87081,63 -0.59949,3.12276 -1.1525,-0.40108 -2.52156,-16.06774 -3.0455,-34.85061 -9.77219,-72.49249 -16.69358,-93.41565 -7.3637,-22.26026 -12.65612,-33.10029 -22.62826,-46.34764 C 696.49814,408.54368 687.21303,398.11625 676.67835,388.93354 671.67248,384.57009 667.25377,381 666.859,381 c -0.39477,0 2.75038,4.6125 6.98923,10.25 15.4281,20.51878 33.65008,54.0721 41.46014,76.34327 2.87817,8.20739 7.24893,24.49801 10.23744,38.15673 1.03858,4.74678 -1.6993,1.87327 -7.14601,-7.5 C 689.40524,448.35311 680.00575,433.81609 662.81481,412.28362 649.34525,395.41236 644.14948,390.56626 629,380.74449 591.37569,356.35177 550.5443,342.29261 507.95553,339.0662 501.10499,338.54722 492.575,338.48344 489,338.92447 c -5.06988,0.62545 -5.61993,0.8339 -2.5,0.9474 6.11377,0.2224 31.55389,5.60928 45.1074,9.55137 19.94359,5.80067 34.85469,11.47714 50.28528,19.14297 20.18355,10.02709 45.01701,26.79139 42.89845,28.95943 -0.38987,0.39898 -6.91487,-2.00169 -14.5,-5.33484 -37.81418,-16.61674 -72.3603,-28.01303 -103.78629,-34.23765 -10.92371,-2.16368 -11.11217,-2.16683 -29,-0.48364 -43.25718,4.07037 -79.49488,12.86561 -109.988,26.69514 -19.87801,9.01527 -20.5933,9.27621 -22.37346,8.16212 -0.90386,-0.56567 -1.78241,-2.18582 -1.95234,-3.60033 -0.26037,-2.16728 0.65811,-3.22856 5.83894,-6.7468 7.67671,-5.21315 29.27477,-15.64862 42.40486,-20.48863 18.65978,-6.87837 49.23967,-13.76141 67.31516,-15.15157 4.5375,-0.34897 8.25,-0.97611 8.25,-1.39364 0,-0.41753 -4.35709,-1.08582 -9.68242,-1.48507 -8.38256,-0.62847 -11.36962,-0.37528 -22.25,1.88596 -23.91116,4.96938 -52.63868,14.98108 -76.56758,26.68423 -18.90265,9.24491 -50.6986,30.31678 -65.5759,43.45859 -11.71267,10.34634 -26.50224,26.72994 -38.19973,42.31691 C 243.95085,472.1622 242.7905,474.55809 239.61709,489 236.19841,504.55808 235,515.12835 235,529.72377 235,536.47569 234.58925,542 234.08723,542 232.76605,542 228,521.23576 228,515.47974 c 0,-7.12445 -1.32389,-4.50899 -4.31277,8.52026 -6.4602,28.16159 -8.17313,45.12367 -7.40467,73.32365 0.54837,20.12336 1.64825,28.771 5.65028,44.42438 13.40365,52.42653 55.18212,102.17806 116.16975,138.33975 10.95432,6.4952 33.73983,17.40314 34.58591,16.55706 0.21429,-0.21429 -4.05178,-2.90436 -9.48014,-5.97792 -23.26387,-13.17212 -47.89711,-31.7132 -68.54002,-51.5891 C 282.89029,727.73741 264.24621,705 266.72542,705 c 0.45183,0 4.41094,3.64623 8.79804,8.10273 14.79827,15.03239 41.95913,35.96786 63.47654,48.92745 8.75311,5.27185 29.89351,15.96982 31.55818,15.96982 0.26156,0 -1.70118,-2.8125 -4.36164,-6.25 -11.47656,-14.82852 -17.67452,-31.14461 -22.1273,-58.25 -4.18371,-25.46748 -4.76198,-41.37372 -2.4215,-66.60652 l 0.61279,-6.60652 -6.5324,-4.66142 c -7.99151,-5.70263 -21.01721,-13.55886 -35.97014,-21.69481 -6.19189,-3.36903 -12.04549,-6.82643 -13.00799,-7.68311 -2.53232,-2.25391 -2.19881,-6.88972 0.70455,-9.79307 2.16475,-2.16475 3.3301,-2.45455 9.87047,-2.45455 10.30055,0 29.18107,3.44268 41.67498,7.59903 21.68443,7.21376 60.55715,28.28951 95.38314,51.71419 8.18572,5.50588 27.31072,19.00865 42.5,30.00614 35.88705,25.98331 48.72671,35.02288 59.11686,41.62034 4.675,2.96849 9.5125,6.0482 10.75,6.84379 1.2375,0.79559 2.25,1.20136 2.25,0.9017 0,-0.29966 -4.22404,-3.71969 -9.38675,-7.60007 -5.16271,-3.88038 -11.56631,-9.02852 -14.23022,-11.44032 -4.32171,-3.9127 -4.69186,-4.56775 -3.43608,-6.08087 6.20069,-7.47138 17.18798,-5.00856 34.31774,7.69238 20.33009,15.07384 33.13135,33.52962 28.83064,41.56557 -1.59053,2.97193 -8.24217,4.52912 -16.21672,3.79643 -11.33759,-1.04169 -38.90687,-9.02309 -61.37211,-17.76744 -5.49864,-2.14028 -10.14294,-3.44155 -10.32575,-2.89312 -0.90274,2.70821 -11.32615,18.95427 -16.18075,25.21952 -7.17877,9.26478 -19.60547,19.86211 -29,24.73083 -7.70131,3.99121 -22.42887,9.0919 -26.25162,9.0919 -3.86821,0 -0.4569,1.69642 6.75162,3.35753 33.84875,7.80001 79.00243,10.19803 113.5,6.02775 z M 651.82547,623.25 c -0.81648,-0.9625 -4.99572,-7.15 -9.28721,-13.75 -12.71549,-19.55551 -27.42357,-38.69354 -50.19927,-65.31885 l -2.83899,-3.31884 -20,20.12013 c -21.72446,21.85495 -32.15447,29.88614 -39.95451,30.76532 -6.5671,0.74021 -7.44679,-1.1716 -4.60256,-10.00264 4.4289,-13.75132 14.00921,-29.91263 32.27593,-54.44727 l 9.82937,-13.20215 -4.35285,-6.79785 c -6.63296,-10.35872 -16.42424,-28.23002 -18.37954,-33.54682 -1.61463,-4.39045 -1.62337,-4.87207 -0.11579,-6.37965 2.77402,-2.77402 6.49241,-0.79393 14.87299,7.92008 4.34195,4.5147 7.90177,7.88855 7.91071,7.49745 C 567.01346,481.48866 558.43078,471.61035 549.79032,463 540.33876,453.58137 535,445.98642 535,441.95921 535,439.35399 537.64882,436 539.7063,436 c 0.57684,0 1.60901,-0.675 2.2937,-1.5 1.90821,-2.29925 3.24928,-1.89004 11.17187,3.40891 9.3412,6.24777 22.45577,18.508 31.86316,29.78746 4.03837,4.842 7.91157,9.44158 8.60711,10.2213 1.06179,1.19029 3.23689,-0.52083 13.56124,-10.66846 20.88146,-20.52402 46.33142,-41.54885 51.72862,-42.73428 6.46055,-1.41897 9.04926,3.72876 5.42347,10.78473 -2.40492,4.68008 -9.10281,14.49562 -13.61365,19.95034 -2.16043,2.6125 -3.54865,4.74141 -3.08494,4.7309 0.46372,-0.0105 5.73879,-3.6105 11.72238,-8 10.30154,-7.55709 13.24361,-8.83032 17.03895,-7.37391 2.73578,1.04981 1.76244,5.47579 -2.37523,10.80064 -2.17636,2.8008 -15.18192,16.29459 -28.90126,29.98619 l -24.94424,24.89381 4.22712,6.60619 c 23.88623,37.32966 40.57978,85.65692 35.59367,103.04247 -1.48628,5.18237 -5.29935,6.72463 -8.1928,3.31371 z M 419.5,574.13283 c -9.77884,-4.4573 -35.23243,-28.06849 -48.44575,-44.93913 -3.54516,-4.52643 -6.75408,-8.10923 -7.13092,-7.96178 -0.37684,0.14744 -7.32917,7.85198 -15.44963,17.12119 -8.12046,9.26921 -16.16154,17.70503 -17.86908,18.74626 -3.72727,2.27283 -8.47648,2.4494 -11.15123,0.41459 -1.07436,-0.81732 -2.99424,-2.28442 -4.26639,-3.26022 -7.70701,-5.91165 0.72496,-29.24943 23.80593,-65.88937 1.20876,-1.91885 0.98727,-2.6294 -2.18199,-7 -4.69747,-6.47809 -13.88264,-22.26436 -18.21792,-31.31058 l -3.49799,-7.29907 2.77922,-5.62736 2.77921,-5.62736 -2.27279,-8.5 c -3.04787,-11.39873 -3.08892,-18.10942 -0.13067,-21.36342 1.2375,-1.36123 3.20885,-2.74961 4.38077,-3.08531 3.1447,-0.9008 9.63886,6.88637 16.72959,20.06053 16.49837,30.65302 21.5993,39.78032 21.61852,38.68291 0.0256,-1.45942 -8.06049,-20.53242 -12.08352,-28.50199 C 347.30291,425.63809 346,422.19235 346,421.13551 c 0,-2.04753 2.83312,-3.72586 4.08221,-2.41829 1.29749,1.35823 17.79359,27.91609 19.04298,30.6582 l 1.19361,2.61969 2.51576,-3.74756 c 8.40743,-12.524 32.40659,-38.24814 37.48448,-40.17875 10.14842,-3.85842 15.62576,3.94046 10.41472,14.82895 -1.36474,2.85163 -2.1401,5.05371 -1.72301,4.89351 0.41708,-0.16019 6.98515,-5.59901 14.59571,-12.08627 15.07409,-12.84918 17.8685,-14.03121 19.8402,-8.39237 0.79189,2.26473 0.54663,3.6283 -1.25907,7 -3.36204,6.2778 -21.66714,28.78394 -40.99315,50.40113 l -17.1773,19.21374 7.83205,15.28626 c 7.97592,15.56704 14.0518,25.97156 25.39049,43.47942 12.66968,19.56304 14.3132,23.53673 11.73068,28.36222 -2.60244,4.86269 -12.21904,6.38267 -19.47036,3.07744 z m 15.31067,195.33966 c 10.05787,-4.93348 24.50522,-19.11248 32.02556,-31.43068 C 469.6763,733.3898 472,729.03872 472,728.37275 c 0,-0.66598 -6.6375,-5.14399 -14.75,-9.95115 -8.1125,-4.80715 -18.96761,-11.38847 -24.12246,-14.62514 -5.15486,-3.23668 -9.53026,-5.72707 -9.72312,-5.53421 -0.19286,0.19286 -1.90498,4.60025 -3.8047,9.7942 -7.04811,19.26994 -12.61787,33.3617 -13.55764,34.30147 -1.79459,1.79459 -3.04255,-4.26824 -3.02028,-14.67302 0.0152,-7.11167 0.88892,-14.56018 2.8955,-24.6849 2.08624,-10.52663 2.55981,-14.68562 1.7282,-15.17737 -0.63002,-0.37256 -3.58927,-2.51006 -6.57611,-4.75 C 398.08256,680.83268 395.27764,679 394.83624,679 c -0.4414,0 -1.87933,2.1375 -3.1954,4.75 -15.5422,30.85246 -13.70059,70.42432 3.90226,83.85067 6.27422,4.78558 12.79351,6.51915 22.76757,6.05422 7.70794,-0.35931 9.77306,-0.88277 16.5,-4.1824 z M 813.34259,645.10428 c 11.63607,-11.28249 16.20077,-17.84692 19.28182,-27.7289 2.18969,-7.02312 2.55267,-9.7554 2.17127,-16.34388 C 834.19558,590.66504 829.69114,581.1493 823,576.1128 l -4.5,-3.3872 -0.78559,7.3872 c -3.78607,35.60165 -7.65141,52.8691 -15.18245,67.82373 -1.94258,3.85745 -3.53196,7.26133 -3.53196,7.56419 0,1.67115 7.51455,-3.77588 14.34259,-10.39644 z m -14.9309,-20.93266 c 3.77995,-12.08376 5.37925,-23.6301 6.17916,-44.61097 C 805.21559,563.17438 805.11728,561 803.75169,561 c -1.28819,0 -1.65904,2.29887 -2.21809,13.75 -0.87251,17.87132 -2.95526,36.28247 -5.49901,48.61008 -2.3337,11.30965 -2.33941,11.36052 -1.13136,10.08992 0.49678,-0.5225 2.07559,-4.69777 3.50846,-9.27838 z M 188.98056,628.25 c -0.0107,-0.4125 -0.69089,-5.25 -1.51155,-10.75 -2.2109,-14.81741 -2.93786,-40.87778 -1.54818,-55.5 1.41842,-14.92465 5.0691,-33.75009 8.48412,-43.75 2.82782,-8.28048 2.3531,-8.75193 -4.45917,-4.42842 -16.64239,10.56234 -27.14729,34.39971 -27.18108,61.67842 -0.027,21.79321 4.95961,35.28093 17.37346,46.99152 6.3745,6.01338 8.8915,7.65254 8.8424,5.75848 z m 626.5667,-140.32647 c 0.76104,-1.23138 -2.2085,-1.72217 -14.79726,-2.4456 -8.21081,-0.47184 -11.75,-0.34767 -11.75,0.41226 0,0.59812 0.8595,4.35502 1.90999,8.34865 1.05049,3.99364 2.18927,8.51941 2.53062,10.05726 l 0.62064,2.79611 10.50211,-9.19457 c 5.77617,-5.05701 10.71892,-9.54536 10.9839,-9.97411 z M 783.5,430.85117 c 8.25,-1.63993 20.175,-4.33026 26.5,-5.97853 14.76729,-3.84828 36.91234,-11.26584 34.83082,-11.6667 -0.88128,-0.16972 -14.19547,1.73687 -29.58709,4.23686 C 785.97491,422.19681 764.46558,425 757.25613,425 754.91526,425 753,425.26394 753,425.58652 c 0,0.32259 1.43674,2.58715 3.19276,5.03237 3.74217,5.21087 2.32209,5.19879 27.30724,0.23228 z m -499,-44.46251 c 3.3,-2.76587 8.46668,-6.8845 11.48151,-9.15252 l 5.48152,-4.12367 0.22253,-11.30624 c 0.12239,-6.21842 0.87554,-14.90623 1.67365,-19.30623 0.79812,-4.4 1.31712,-8.13918 1.15334,-8.30928 -0.61869,-0.64259 -17.77815,21.58589 -25.23802,32.69347 C 272.49095,376.9848 254,411.77367 254,414.43568 c 0,0.52902 5.5125,-4.43365 12.25,-11.02815 6.7375,-6.59451 14.95,-14.253 18.25,-17.01887 z m 468.40958,18.58235 7.59042,-2.85674 -14.5,-0.0708 c -7.975,-0.0389 -15.62241,-0.37087 -16.99424,-0.73764 -2.2784,-0.60914 -2.12362,-0.22418 1.78843,4.44834 l 4.28268,5.11519 5.12114,-1.52081 c 2.81663,-0.83645 8.53683,-2.80635 12.71157,-4.37755 z m -19.92352,-28.51744 c 16.43336,-2.66504 35.43152,-8.04837 47.22252,-13.381 7.4458,-3.36746 7.20666,-4.48911 -0.80181,-3.76073 -22.20095,2.01922 -41.96703,2.9393 -65.65565,3.05618 -14.71188,0.0726 -26.74938,0.18261 -26.75,0.24448 -6.2e-4,0.0619 3.03638,2.37834 6.74888,5.14769 3.7125,2.76935 7.84094,6.20622 9.17431,7.6375 2.26805,2.43457 3.00933,2.60205 11.5,2.59829 4.99163,-0.002 13.34442,-0.6963 18.56175,-1.54241 z M 647,368.88317 c -7.31651,-6.36419 -28.00225,-19.74223 -27.99821,-18.10722 9.8e-4,0.39823 2.13848,2.04875 4.75,3.66783 7.21473,4.47297 23.86868,16.39399 25.28223,18.09722 0.68804,0.82903 1.52436,1.22588 1.85848,0.88189 0.33413,-0.34399 -1.4175,-2.38687 -3.8925,-4.53972 z m 21.60453,-36.49131 c 18.14032,-8.6826 42.10551,-19.00603 67.14547,-28.92409 9.4875,-3.7579 17.25,-7.10683 17.25,-7.44207 0,-0.73384 -28.3239,4.91227 -43,8.57166 -17.52185,4.36896 -36.02978,10.34472 -45,14.52941 -8.38299,3.91075 -25,13.81539 -25,14.90137 0,0.69048 10.0846,5.82728 11.60453,5.91101 0.60749,0.0335 8.25749,-3.36281 17,-7.54729 z m -284.61184,-0.4157 c 4.47606,-1.72904 4.49889,-1.76275 6.16617,-9.10581 0.92041,-4.05369 1.58094,-7.46311 1.46784,-7.57648 -0.1131,-0.11338 -4.13625,4.28543 -8.94035,9.77512 -9.42683,10.77214 -9.37728,11.03411 1.30634,6.90717 z m 228.59529,-11.0523 c 12.36612,-10.70281 45.82927,-34.38294 77.65779,-54.95439 9.76018,-6.30821 17.74768,-11.77381 17.75,-12.14579 0.0115,-1.84145 -36.83077,14.55755 -58.41681,26.00213 -24.64677,13.06731 -65.24161,38.72311 -62.51335,39.50821 8.87789,2.55477 19.57564,5.52509 20.12357,5.58749 0.37905,0.0432 2.80851,-1.75577 5.3988,-3.99765 z M 345.41792,316.25 c 7.66296,-18.06696 20.50188,-39.10228 37.38397,-61.25 5.24047,-6.875 10.0156,-13.175 10.6114,-14 1.92587,-2.66675 -11.97008,10.48942 -17.32594,16.40355 -14.66063,16.18877 -27.32243,38.70235 -32.94949,58.58654 -1.09107,3.85545 -1.66856,7.00991 -1.28333,7.00991 0.38523,0 1.98876,-3.0375 3.56339,-6.75 z m 90.70119,2.13981 c 6.11897,-0.81171 6.18538,-0.86621 36.89855,-30.28147 27.89983,-26.72081 42.93843,-40.51721 62.21169,-57.07296 8.62111,-7.40554 15.51493,-13.62443 15.3196,-13.81976 -0.72029,-0.72029 -9.38335,4.24615 -21.54895,12.35378 -23.96457,15.97093 -49.63614,37.2443 -73.52779,60.9306 -16.5065,16.36463 -28.97956,30.26029 -26.23439,29.22654 0.9558,-0.35993 4.05238,-0.96146 6.88129,-1.33673 z M 567.78656,293.5 c 3.8636,-4.4 6.86439,-8.1653 6.66841,-8.36734 -0.66057,-0.681 -13.35276,5.70464 -20.68211,10.40548 -8.96148,5.74766 -23.67304,16.70703 -23.73049,17.67803 -0.0233,0.39389 4.79513,0.84389 10.70763,1 L 551.5,314.5 556.13092,308 c 2.547,-3.575 7.79204,-10.1 11.65564,-14.5 z m -81.14161,15.75 c 0.84859,-2.0625 3.27144,-7.4625 5.38411,-12 2.11266,-4.5375 3.53289,-8.1869 3.15607,-8.10977 -0.37682,0.0771 -5.83925,5.47712 -12.13874,12 L 471.59279,313 h 6.75463 6.75463 z"
       id="path1" />
  </g>
</svg>
